<?xml version="1.0" encoding="utf-8"?>
<!-- Generator: Adobe Illustrator 22.0.1, SVG Export Plug-In . SVG Version: 6.00 Build 0)  -->
<svg version="1.1" id="Layer_1" xmlns="http://www.w3.org/2000/svg" xmlns:xlink="http://www.w3.org/1999/xlink" x="0px" y="0px"
	 viewBox="0 0 64 64" style="enable-background:new 0 0 64 64;" xml:space="preserve">
<style type="text/css">
	.st0{fill:#6C352E;}
	.st1{fill:#F1E8D7;stroke:#F1E8D7;stroke-width:0.2445;stroke-miterlimit:10;}
	.st2{fill:#6C352E;stroke:#F1E8D7;stroke-width:0.2445;stroke-miterlimit:10;}
</style>
<circle class="st0" cx="30.8" cy="32.6" r="29.6"/>
<g>
	<g>
		<path class="st1" d="M10.2,28.5h5.2l0,1v9.9c0,0,0,0,0,0l-1.2,11.8h1.6L17,39.4V27.6h-6.8V28.5z"/>
		<path class="st1" d="M44.6,39.4l1.2,11.9h1.6l-1.2-11.8c0,0,0,0,0,0l0-9.9l0-1h5.2v-1h-6.8V39.4z"/>
		<rect x="18" y="37.2" class="st1" width="25.7" height="1.9"/>
		<polygon class="st1" points="17.4,44.8 17.3,45.8 44.2,45.8 44.1,44.8 		"/>
		<path class="st1" d="M43.7,40.1h-3.9l-0.3,2.4c0,0.2-0.2,0.4-0.5,0.4H22.3c-0.2,0-0.5-0.2-0.5-0.4l-0.3-2.4h-3.6l-0.4,3.7h26.5
			L43.7,40.1z"/>
		<polygon class="st1" points="38.6,42 38.8,40.1 22.5,40.1 22.7,42 		"/>
		<path class="st1" d="M31.5,36.2l0.3-26.7c-0.8,0-1.5,0-2.3,0l0.3,26.7H31.5z"/>
		<path class="st1" d="M37.2,10.5c-0.7-0.2-1.5-0.4-2.2-0.6l-1.2,26.3h1.6L37.2,10.5z"/>
		<path class="st1" d="M27.5,36.2L26.3,9.9c-0.8,0.2-1.5,0.4-2.2,0.6l1.8,25.7H27.5z"/>
		<path class="st1" d="M42.3,13.2c-0.6-0.5-1.3-0.9-2-1.3l-2.6,24.3h1.6L42.3,13.2z"/>
		<path class="st1" d="M23.6,36.2l-2.5-24.3c-0.7,0.4-1.4,0.8-2,1.3l2.9,23H23.6z"/>
		<path class="st2" d="M17,39.4l-1.2,11.9h-1.6l1.2-11.8c0,0,0,0,0,0v-9.9l0-1h-5.2v-1H17V39.4z M40.3,11.9c0.7,0.4,1.4,0.8,2,1.3
			l-2.9,23h-1.6L40.3,11.9z M35,9.9c0.8,0.2,1.5,0.4,2.2,0.6l-1.8,25.7h-1.6L35,9.9z M31.8,9.5l-0.3,26.7h-1.6L29.5,9.5
			C30.3,9.4,31,9.4,31.8,9.5z M24.1,10.5c0.7-0.2,1.5-0.4,2.2-0.6l1.2,26.3h-1.6L24.1,10.5z M19,13.2c0.6-0.5,1.3-0.9,2-1.3
			l2.5,24.3H22L19,13.2z M18,37.2h25.7v1.9H18V37.2z M38.8,40.1L38.6,42H22.7l-0.2-1.9H38.8z M17.9,40.1h3.6l0.3,2.4
			c0,0.2,0.2,0.4,0.5,0.4H39c0.2,0,0.5-0.2,0.5-0.4l0.3-2.4h3.9l0.4,3.7H17.5L17.9,40.1z M17.3,45.8l0.1-1h26.7l0.1,1H17.3z
			 M51.4,28.5h-5.2l0,1l0,9.9c0,0,0,0,0,0l1.2,11.8h-1.6l-1.2-11.9V27.6h6.8V28.5z"/>
		<path class="st1" d="M10.2,28.5h5.2l0,1v9.9c0,0,0,0,0,0l-1.2,11.8h1.6L17,39.4V27.6h-6.8V28.5z"/>
		<path class="st1" d="M44.6,39.4l1.2,11.9h1.6l-1.2-11.8c0,0,0,0,0,0l0-9.9l0-1h5.2v-1h-6.8V39.4z"/>
		<rect x="18" y="37.2" class="st1" width="25.7" height="1.9"/>
		<polygon class="st1" points="17.4,44.8 17.3,45.8 44.2,45.8 44.1,44.8 		"/>
		<path class="st1" d="M43.7,40.1h-3.9l-0.3,2.4c0,0.2-0.2,0.4-0.5,0.4H22.3c-0.2,0-0.5-0.2-0.5-0.4l-0.3-2.4h-3.6l-0.4,3.7h26.5
			L43.7,40.1z"/>
		<polygon class="st1" points="38.6,42 38.8,40.1 22.5,40.1 22.7,42 		"/>
		<path class="st1" d="M31.5,36.2l0.3-26.7c-0.8,0-1.5,0-2.3,0l0.3,26.7H31.5z"/>
		<path class="st1" d="M37.2,10.5c-0.7-0.2-1.5-0.4-2.2-0.6l-1.2,26.3h1.6L37.2,10.5z"/>
		<path class="st1" d="M27.5,36.2L26.3,9.9c-0.8,0.2-1.5,0.4-2.2,0.6l1.8,25.7H27.5z"/>
		<path class="st1" d="M42.3,13.2c-0.6-0.5-1.3-0.9-2-1.3l-2.6,24.3h1.6L42.3,13.2z"/>
		<path class="st1" d="M23.6,36.2l-2.5-24.3c-0.7,0.4-1.4,0.8-2,1.3l2.9,23H23.6z"/>
		<path class="st2" d="M51.9,26.6h-7.8c-0.3,0-0.5,0.2-0.5,0.5v9.1h-3.3l3-23.1c0-0.2,0-0.3-0.2-0.4c-0.9-0.7-1.8-1.3-2.8-1.8
			c-0.2-0.1-0.8-0.3-0.9,0.4l-2.6,25.1h-0.3l1.8-26c0-0.2-0.1-0.4-0.3-0.5c-1-0.4-2.1-0.7-3.3-0.9c-0.1,0-0.3,0-0.4,0.1
			C34.1,9,34,9.1,34,9.3l-1.3,26.9h-0.3L32.8,9c0-0.3-0.2-0.5-0.5-0.5c-1.2-0.1-2.2-0.1-3.3,0c-0.3,0-0.5,0.2-0.5,0.5l0.3,27.2h-0.3
			L27.3,9.3c0-0.1-0.1-0.3-0.2-0.4c-0.1-0.1-0.3-0.1-0.4-0.1c-1.1,0.2-2.2,0.5-3.3,0.9c-0.2,0.1-0.3,0.3-0.3,0.5l1.8,26h-0.4L22,11
			c0-0.2-0.1-0.3-0.3-0.4c-0.1-0.1-0.3-0.1-0.5,0c-1.1,0.6-2.1,1.2-3,1.9C18.1,12.7,18,12.9,18,13l3,23.1h-3v-9.1
			c0-0.3-0.2-0.5-0.5-0.5H9.7c-0.3,0-0.5,0.2-0.5,0.5V29c0,0.3,0.2,0.5,0.5,0.5h4.7v9.9l-1.2,12.3c0,0.1,0,0.3,0.1,0.4
			c0.1,0.1,0.2,0.2,0.4,0.2h2.6c0.3,0,0.5-0.2,0.5-0.5c0,0,0,0,0,0l0.5-5h27.1l0.5,5.1c0,0.2,0.2,0.4,0.5,0.4h2.6
			c0.1,0,0.3-0.1,0.4-0.2c0.1-0.1,0.1-0.2,0.1-0.4l-1.2-12.3l0-9.9h4.7c0.3,0,0.5-0.2,0.5-0.5v-1.9C52.4,26.8,52.2,26.6,51.9,26.6z
			 M17,39.4l-1.2,11.9h-1.6l1.2-11.8c0,0,0,0,0,0v-9.9l0-1h-5.2v-1H17V39.4z M40.3,11.9c0.7,0.4,1.4,0.8,2,1.3l-2.9,23h-1.6
			L40.3,11.9z M35,9.9c0.8,0.2,1.5,0.4,2.2,0.6l-1.8,25.7h-1.6L35,9.9z M31.8,9.5l-0.3,26.7h-1.6L29.5,9.5C30.3,9.4,31,9.4,31.8,9.5
			z M24.1,10.5c0.7-0.2,1.5-0.4,2.2-0.6l1.2,26.3h-1.6L24.1,10.5z M19,13.2c0.6-0.5,1.3-0.9,2-1.3l2.5,24.3H22L19,13.2z M18,37.2
			h25.7v1.9H18V37.2z M38.8,40.1L38.6,42H22.7l-0.2-1.9H38.8z M17.9,40.1h3.6l0.3,2.4c0,0.2,0.2,0.4,0.5,0.4H39
			c0.2,0,0.5-0.2,0.5-0.4l0.3-2.4h3.9l0.4,3.7H17.5L17.9,40.1z M17.3,45.8l0.1-1h26.7l0.1,1H17.3z M51.4,28.5h-5.2l0,1l0,9.9
			c0,0,0,0,0,0l1.2,11.8h-1.6l-1.2-11.9V27.6h6.8V28.5z"/>
	</g>
</g>
</svg>
