<?xml version="1.0" encoding="utf-8"?>
<!-- Generator: Adobe Illustrator 22.0.1, SVG Export Plug-In . SVG Version: 6.00 Build 0)  -->
<svg version="1.1" id="Layer_1" xmlns="http://www.w3.org/2000/svg" xmlns:xlink="http://www.w3.org/1999/xlink" x="0px" y="0px"
	 viewBox="0 0 64 64" style="enable-background:new 0 0 64 64;" xml:space="preserve">
<style type="text/css">
	.st0{fill:#6C352E;}
	.st1{fill:#F1E8D7;}
	.st2{fill:#F15B27;}
</style>
<path class="st0" d="M62.8,30.4c-0.1-1.6-0.2-3.1-0.6-4.6c-0.1-0.7-0.3-1.4-0.5-2c-0.1-0.7-0.3-1.3-0.6-1.9c-0.2-0.7-0.4-1.4-0.8-2
	c-0.1-0.4-0.3-0.8-0.5-1.2c-0.3-0.7-0.6-1.4-1-2c-1.2-2.1-2.6-4.1-4.3-5.8c-0.5-0.7-1.1-1.3-1.8-1.8c-1.3-1.3-2.8-2.4-4.4-3.4
	c-1.4-1-2.9-1.7-4.5-2.4C43,3,42.3,2.7,41.4,2.5c0,0-0.1,0-0.1,0c-0.2-0.1-0.4-0.2-0.6-0.2c-0.2-0.1-0.4-0.2-0.6-0.2
	c-0.4-0.2-0.9-0.3-1.3-0.3c-0.1,0-0.3-0.1-0.4-0.1c-6.5-1.4-12.9-0.7-19,2c-2.9,1.3-5.6,3-7.9,5.2c-0.7,0.6-1.3,1.2-1.9,1.9
	c-0.1,0.1-0.3,0.3-0.4,0.4C2,19.2-0.4,28.6,1.7,39.2c0.6,2.7,1.5,5.3,2.9,7.8c0.1,0.3,0.3,0.7,0.5,0.9c0.4,0.9,0.9,1.7,1.5,2.4
	c0.3,0.5,0.6,0.9,0.9,1.3C8,52.3,8.5,52.8,9,53.3c0.1,0.2,0.3,0.3,0.4,0.5c2.6,2.8,5.7,5.1,9.2,6.8c1.6,0.8,3.3,1.5,5.1,1.9
	c1.6,0.5,3.3,0.8,5,1c0.2,0.1,0.4,0.1,0.6,0.1c0,0,0.1,0,0.1,0v0c1.7,0.2,3.5,0.2,5.2,0c1.8-0.1,3.6-0.4,5.3-1
	c1.4-0.3,2.7-0.8,4-1.4l0,0c0.2-0.1,0.3-0.1,0.5-0.2c4.3-1.9,8-4.7,11.1-8.4c0.7-0.9,1.4-1.7,2-2.7c0.6-0.8,1.1-1.6,1.5-2.5
	c0.9-1.5,1.6-3.1,2.1-4.7c0.1-0.7,0.5-1.2,0.6-1.9c0.3-1,0.6-2,0.7-3.1c0,0,0-0.1,0-0.1C62.9,35.2,62.9,32.8,62.8,30.4z M29.2,62.2
	C29.2,62.2,29.2,62.2,29.2,62.2C29.3,62.2,29.3,62.2,29.2,62.2C29.3,62.2,29.3,62.2,29.2,62.2z M61.8,38.5
	C61.8,38.5,61.8,38.5,61.8,38.5C61.8,38.5,61.8,38.5,61.8,38.5C61.8,38.5,61.8,38.5,61.8,38.5C61.8,38.5,61.8,38.5,61.8,38.5z"/>
<g>
	<path class="st1" d="M43.2,42.7c-0.4,0-0.9,0.1-1.3,0c-0.1-0.2-0.3-0.2-0.5-0.2c-0.2,0-0.4,0-0.6-0.1c-0.3-0.1-0.6-0.1-0.9-0.3
		c-1.2-0.3-2.1-1.1-2.8-2c-0.6-0.7-0.9-1.6-1.5-2.4c-1.1-2.3-3-3.8-5.2-5c-1.8-1-3.9-1.4-5.9-1.9c-2.2-0.5-4.4-1-6.4-2.1
		c-1.4-0.7-2.6-1.7-3.4-3c-1.1-1.9-1-3.8-0.4-5.8c0.4-1.2,0.9-2.3,1.4-3.4c-0.1,0-0.1,0-0.2,0c-2.6,0.8-4.9,2.1-6.6,4.2
		c-2.8,3.4-3.1,8.2,1.4,11.3c1.6,1.2,3.4,2,5.3,2.6c2.5,0.8,5,1.4,7.5,2.4c2,0.8,3.9,1.7,5.3,3.3c0,0.2,0.1,0.3,0.2,0.4
		c0.7,0.8,1.2,1.7,1.7,2.6c0.3,0.5,0.4,1,0.7,1.5c1.6,3.5,3.2,7,5,10.4c0.2,0.3,0.3,0.6,0.6,0.8c0.2,0.1,0.4,0.2,0.6,0.1
		c0.4-0.4,0.6-0.9,0.8-1.3c1.4-2.8,2.8-5.7,4.2-8.5c0.2-0.5,0.4-1,0.7-1.4c0.2-0.6,0.5-1.2,0.7-1.8C43.8,42.8,43.6,42.7,43.2,42.7z"
		/>
	<path class="st1" d="M33.3,55.7c0-0.3-0.2-0.5-0.3-0.8c-1.8-3.5-3.5-7.1-5.3-10.6c-0.2-0.4-0.4-0.8-0.6-1.2
		c-0.3-0.5-0.5-1.2-0.9-1.6c-0.3-0.2-0.6-0.2-0.9,0c-0.4,0.2-0.7,0.3-1.1,0.5c-1.5,0.5-2.9,0.6-4.5,0.4c-0.4-0.1-0.8-0.2-0.9,0.4
		c0,0.3,0.2,0.5,0.4,0.7c1.4,2.3,2.7,4.8,3.9,7.3c1,2,2,4.1,2.7,6.2c0.1,0.2,0.1,0.4,0.3,0.6l0,0c0.3,0.8,0.6,1.5,0.9,2.3
		c0.3,0.7,0.6,1.3,1.4,1.6c2.1,0.6,4.2,0.5,6.3-0.2c0.9-0.4,0.9-0.7,0.5-1.6C34.5,58.3,33.9,57,33.3,55.7z"/>
	<path class="st1" d="M53.7,23.4c-0.2-0.5-0.3-0.9-0.5-1.4c-0.3-0.5-0.6-1-0.8-1.4c0-0.1-0.1-0.2-0.2-0.3C52,20.3,52,20.1,52,20
		c-0.6-0.6-1.3-1.2-1.9-1.8C50,18.1,50,18,49.9,17.9c-0.2-0.1-0.3-0.2-0.5-0.3c-0.2-0.1-0.3-0.2-0.5-0.3c-0.2-0.1-0.4-0.3-0.6-0.3
		c-0.5,0-0.3,0.3-0.2,0.5c0.3,0.5,0.5,1.1,0.7,1.6c0.2,0.9,0.4,1.8,0.2,2.7c-0.1,0.4-0.1,0.8-0.2,1.2c-0.1,0.7-0.6,1.3-0.7,2.1
		c-0.1,0.1-0.1,0.2-0.2,0.4c-1.6,2.5-4,4.1-6.8,5.2c-1.6,0.6-3.2,1-4.9,1.3c-0.9,0.2-1.1,0.7-0.7,1.4c0.7,1.1,1.3,2.2,2,3.3
		c0.4,0.7,0.6,0.7,1.4,0.5c0.7-0.3,1.5-0.5,2.3-0.6c1.2-0.2,2.5-0.1,3.7,0c2.1,0.2,3.5-1.2,4.9-2.5c0.1-0.1,0-0.1,0.1-0.2
		c2-2.2,3.6-4.6,4.1-7.6C53.9,25.2,53.9,24.3,53.7,23.4z"/>
</g>
<g>
	<path class="st2" d="M21.4,16.5c0.4-0.6,0.8-1.1,1.3-1.6c1.5-1.9,2-4,1.2-6.4c0-0.1-0.1-0.2-0.2-0.2c0,0,0,0,0,0
		c0-0.1-0.1-0.1-0.1-0.2h0l0,0c0,0,0,0,0.1,0c-0.1-0.2-0.2-0.3-0.4-0.5c-0.2-0.3-0.5-0.6-1-0.4c-0.5,0.2-0.3,0.6-0.3,0.9l0,0
		c0,0.2,0.1,0.3,0.1,0.5l0,0c0.3,0.9,0,1.6-0.7,2.3c-0.9,0.8-1.7,1.7-2.4,2.7c-1.9,2.8-2,5.7-0.5,8.7c0.1,0.3,0.3,0.5,0.7,0.4
		c0.4-0.1,0.3-0.5,0.3-0.7c-0.1-0.6-0.1-1.3,0-1.9C19.9,18.7,20.6,17.6,21.4,16.5z"/>
	<path class="st2" d="M45.8,20.9c0.1-0.4,0.2-0.9,0.2-1.3c0-0.2,0-0.5,0-0.7l0,0c0.1-0.4,0-0.8-0.1-1.2c0,0,0,0,0,0c0,0,0,0,0,0
		c-0.1-0.3-0.2-0.6-0.2-1h0c0,0,0-0.1,0-0.1c-0.3-0.5-0.4-1-0.7-1.4c-0.1-0.5-0.5-0.8-0.7-1.3c0,0-0.1,0-0.1,0h0l0,0
		c-0.5-0.9-1.2-1.5-1.9-2.2c-1.3-1.2-2.9-2.2-4-3.7c-0.2-0.1-0.5-0.2-0.8-0.1c-0.2,0.2-0.3,0.5-0.3,0.7c-0.1,1.8,0.4,3.5,1.4,5
		c0.1,0.1,0.1,0.1,0.2,0.2c0.1,0.6,0.6,1.1,0.9,1.7c0,0.1,0.1,0.1,0.3,0.2c0,0,0,0,0,0c-0.2,0.3,0.1,0.6,0.1,0.8
		c0.1,0.3,0.2,0.6,0.5,0.7c0,0,0,0,0,0c0,0.2,0.1,0.4,0.1,0.6v0c0.1,0.4,0.2,0.8,0.3,1.1c0,0-0.1,0-0.1,0.1c0,0.2,0,0.3,0.1,0.4
		c0,0.1,0.1,0.2,0.1,0.4c0.1,1,0,2-0.2,3h0c0,0,0,0.1,0,0.1c-0.1,0-0.1,0.1-0.1,0.2c-0.3,1.5-1,2.7-2,3.8c-0.2,0.2-0.3,0.5-0.1,0.7
		c0.2,0.2,0.5,0.2,0.7,0.1c1.7-1,3.4-2,4.7-3.6l0,0c0,0,0.1,0,0.1,0c0.3-0.5,0.7-0.8,0.8-1.3c0,0,0.1,0,0.1,0
		c0.2-0.6,0.6-1.1,0.7-1.7c0,0,0,0,0,0l0,0C45.8,21,45.8,21,45.8,20.9z M41.6,21.9c0,0,0-0.1,0-0.1C41.7,21.8,41.7,21.9,41.6,21.9
		C41.7,21.9,41.7,21.9,41.6,21.9z M45.1,22C45.1,22,45.1,22,45.1,22C45.1,21.9,45.1,21.9,45.1,22C45.1,21.9,45.1,22,45.1,22z"/>
	<path class="st2" d="M38.3,21.3c0-0.7,0-1.3,0-2c0,0,0-0.1,0-0.1c0.1-0.3,0-0.6-0.2-0.8c0,0-0.1,0-0.1,0c0,0,0,0,0,0
		c0.1-0.4,0-0.7-0.3-0.8c0.2-0.3-0.1-0.5-0.2-0.7c-0.2-0.3-0.4-0.7-0.7-1c-0.1-0.2-0.2-0.4-0.4-0.5c-0.2-0.6-0.7-1.1-1.1-1.6
		c-0.1,0-0.1,0-0.2,0c0.1-0.2,0-0.4-0.2-0.6c-0.9-1.4-1.4-2.9-1.7-4.5c-0.1-0.3-0.3-1.7-0.3-1.9c-0.1-0.8,0-1.7,0.1-2.5
		c0-0.2,0.2-1.5,0.2-1.6c0.1-0.3,0.2-0.5-0.1-0.7C33,1.9,32.8,2,32.5,2.2c-0.5,0.5-1.2,0.9-1.6,1.5c0.1,0-0.4,0.3-0.5,0.5
		c-0.9,1.1-1.7,2.2-2.4,3.4c0,0,0,0,0.1,0c0,0,0.1,0.1,0.1,0.1c0,0,0,0,0,0c0,0-0.1,0-0.1,0c-0.1,0-0.1,0.1-0.2,0.1
		c-1.1,2.4-0.3,4.4,1.1,6.4c0.2,0.4,0.4,0.7,0.7,1.1h0c0.3,0.6,0.6,1.2,0.9,1.8c0.3,0.7,0.1,1.4-0.3,1.9c-1.1,1.4-3.6,1.3-4.5-0.2
		c-0.4-0.6-0.5-1.3-0.1-2c0.1-0.3,0.4-0.5,0.1-0.8c-0.3-0.3-0.6-0.1-0.9,0.1c-0.6,0.4-1.1,0.9-1.6,1.4c-2.1,2.4-2.1,6.1,0.1,8.4
		c2.1,2.3,4.8,3.1,7.8,2.7c3.9-0.5,6.8-3.3,7.2-7.1C38.4,21.5,38.4,21.5,38.3,21.3C38.4,21.4,38.4,21.3,38.3,21.3z"/>
</g>
</svg>
